<svg width="16" height="16" viewBox="0 0 16 16" fill="none" xmlns="http://www.w3.org/2000/svg">
<path d="M14.3613 8.51874L11.5005 11.3796L8.6396 8.51874C8.49351 8.37266 8.25659 8.37266 8.10957 8.51874C7.96348 8.66483 7.96348 8.90175 8.10957 9.04878L10.9704 11.9096L11.2355 12.1747C11.3815 12.3208 11.6185 12.3208 11.7655 12.1747L12.0305 11.9096L14.8904 9.04878C15.0365 8.90269 15.0365 8.66577 14.8904 8.51874C14.7443 8.37266 14.5074 8.37266 14.3613 8.51874Z" fill="#0A1B39" stroke="#0A1B39" stroke-width="0.5"/>
<path d="M8.63866 6.76543L11.4995 3.90457L14.3604 6.76543C14.5065 6.91152 14.7434 6.91152 14.8904 6.76543C15.0365 6.61935 15.0365 6.38242 14.8904 6.2354L12.0296 3.37453L11.7645 3.10951C11.6185 2.96343 11.3815 2.96343 11.2345 3.10951L10.9695 3.37453L8.10957 6.2354C7.96348 6.38149 7.96348 6.61841 8.10957 6.76543C8.25565 6.91152 8.49258 6.91152 8.63866 6.76543Z" fill="#0A1B39" stroke="#0A1B39" stroke-width="0.5"/>
</svg>
