<svg width="14" height="14" viewBox="0 0 14 14" fill="none" xmlns="http://www.w3.org/2000/svg">
<path d="M7.00008 1.1665C3.77425 1.1665 1.16675 3.774 1.16675 6.99984C1.16675 10.2257 3.77425 12.8332 7.00008 12.8332C10.2259 12.8332 12.8334 10.2257 12.8334 6.99984C12.8334 3.774 10.2259 1.1665 7.00008 1.1665ZM9.74583 8.92075C9.97392 9.14884 9.97392 9.5175 9.74583 9.74559C9.63208 9.85934 9.48275 9.9165 9.33341 9.9165C9.18408 9.9165 9.03475 9.85934 8.921 9.74559L7.00008 7.82467L5.07916 9.74559C4.96541 9.85934 4.81608 9.9165 4.66675 9.9165C4.51741 9.9165 4.36808 9.85934 4.25433 9.74559C4.02625 9.5175 4.02625 9.14884 4.25433 8.92075L6.17525 6.99984L4.25433 5.07892C4.02625 4.85084 4.02625 4.48217 4.25433 4.25409C4.48241 4.026 4.85108 4.026 5.07916 4.25409L7.00008 6.175L8.921 4.25409C9.14908 4.026 9.51775 4.026 9.74583 4.25409C9.97392 4.48217 9.97392 4.85084 9.74583 5.07892L7.82491 6.99984L9.74583 8.92075Z" fill="#E5E5E5"/>
</svg>
