<svg width="20" height="20" viewBox="0 0 20 20" fill="none" xmlns="http://www.w3.org/2000/svg">
<path d="M10.2828 1.53463C10.1155 1.48813 9.842 1.48813 9.675 1.53463L7.11125 2.24363C6.944 2.28988 6.94425 2.36488 7.11175 2.41013L15.6893 4.73413C15.8568 4.77963 15.9938 4.95813 15.9938 5.13113V9.33113C15.9938 9.50413 15.8615 9.69713 15.7 9.75988L14.3595 10.2811C14.198 10.3441 14.0658 10.2539 14.0658 10.0811V5.90713C14.0658 5.73413 13.9285 5.55588 13.761 5.51088L4.719 3.08238C4.5515 3.03738 4.2775 3.03863 4.1105 3.08463L1.179 3.89563C1.012 3.94213 0.875 4.12138 0.875 4.29438V15.1294C0.875 15.3021 1.01025 15.4871 1.17525 15.5401L10.2965 18.4636C10.4615 18.5164 10.7298 18.5111 10.893 18.4516L18.8283 15.5519C18.9913 15.4924 19.1245 15.3021 19.1245 15.1294L19.125 4.29988C19.125 4.12688 18.9885 3.94738 18.8213 3.90113L10.2828 1.53463Z" fill="#0A1B39"/>
</svg>
