<svg width="32" height="32" viewBox="0 0 32 32" fill="none" xmlns="http://www.w3.org/2000/svg">
<rect width="32" height="32" rx="5.33333" fill="#EEF4FD"/>
<path fill-rule="evenodd" clip-rule="evenodd" d="M13.8334 8.16602C12.0845 8.16602 10.6667 9.58378 10.6667 11.3327V20.666C10.6667 22.4149 12.0845 23.8327 13.8334 23.8327H19.1667C20.9157 23.8327 22.3334 22.4149 22.3334 20.666V11.3327C22.3334 9.58378 20.9156 8.16602 19.1667 8.16602H13.8334ZM11.6667 11.3327C11.6667 10.1361 12.6368 9.16602 13.8334 9.16602H19.1667C20.3634 9.16602 21.3334 10.1361 21.3334 11.3327V20.666C21.3334 21.8626 20.3634 22.8327 19.1667 22.8327H13.8334C12.6368 22.8327 11.6667 21.8626 11.6667 20.666V11.3327ZM14.3333 20.666C14.0571 20.666 13.8333 20.8899 13.8333 21.166C13.8333 21.4422 14.0571 21.666 14.3333 21.666H18.6666C18.9427 21.666 19.1666 21.4422 19.1666 21.166C19.1666 20.8899 18.9427 20.666 18.6666 20.666H14.3333Z" fill="#2073E5"/>
</svg>
