<svg width="32" height="32" viewBox="0 0 32 32" fill="none" xmlns="http://www.w3.org/2000/svg">
<rect width="32" height="32" rx="5.33333" fill="#EEF4FD"/>
<path fill-rule="evenodd" clip-rule="evenodd" d="M23.6665 13.8327C23.6665 12.0838 22.2487 10.666 20.4998 10.666H12.4998C10.7509 10.666 9.33317 12.0838 9.33317 13.8327L9.33317 19.166C9.33317 20.9149 10.7509 22.3327 12.4998 22.3327L20.4998 22.3327C22.2487 22.3327 23.6665 20.9149 23.6665 19.166V13.8327ZM20.4998 11.666C21.6965 11.666 22.6665 12.6361 22.6665 13.8327V19.166C22.6665 20.3626 21.6965 21.3327 20.4998 21.3327L12.4998 21.3327C11.3032 21.3327 10.3332 20.3626 10.3332 19.166L10.3332 13.8327C10.3332 12.6361 11.3032 11.666 12.4998 11.666L20.4998 11.666ZM12.8536 13.4785C12.6583 13.2832 12.3417 13.2832 12.1464 13.4785C11.9512 13.6737 11.9512 13.9903 12.1464 14.1856L16.1464 18.1856C16.2402 18.2794 16.3674 18.332 16.5 18.332C16.6326 18.332 16.7598 18.2794 16.8536 18.1856L20.8536 14.1856C21.0488 13.9903 21.0488 13.6737 20.8536 13.4785C20.6583 13.2832 20.3417 13.2832 20.1464 13.4785L16.5 17.1249L12.8536 13.4785Z" fill="#2073E5"/>
</svg>
