<svg width="16" height="16" viewBox="0 0 16 16" fill="none" xmlns="http://www.w3.org/2000/svg">
<path d="M6.75 2.25C4.26875 2.25 2.25 4.26875 2.25 6.75C2.25 9.23125 4.26875 11.25 6.75 11.25C7.7823 11.25 8.73158 10.8968 9.4917 10.3101L12.7622 13.5806C12.9882 13.8066 13.3546 13.8066 13.5806 13.5806C13.8066 13.3546 13.8066 12.9882 13.5806 12.7622L10.3101 9.4917C10.8968 8.73158 11.25 7.7823 11.25 6.75C11.25 4.26875 9.23125 2.25 6.75 2.25ZM6.75 3.25C8.67975 3.25 10.25 4.82025 10.25 6.75C10.25 8.67975 8.67975 10.25 6.75 10.25C4.82025 10.25 3.25 8.67975 3.25 6.75C3.25 4.82025 4.82025 3.25 6.75 3.25Z" fill="#FD525A"/>
</svg>
