<svg width="10" height="10" viewBox="0 0 10 10" fill="none" xmlns="http://www.w3.org/2000/svg">
<path fill-rule="evenodd" clip-rule="evenodd" d="M4.99995 0C2.24293 0 0 2.24287 0 4.99995C0 7.75704 2.24293 9.99997 4.99995 9.99997C7.7571 9.99997 9.99989 7.75705 9.99989 4.99995C9.99989 2.24287 7.75704 0 4.99995 0ZM4.99995 9.28245C2.63857 9.28245 0.717522 7.36106 0.717522 4.99996C0.717522 2.63851 2.63857 0.717534 4.99995 0.717534C7.36099 0.717534 9.28244 2.63852 9.28244 4.99996C9.28244 7.36106 7.36098 9.28245 4.99995 9.28245ZM4.99991 6.76666C4.7041 6.76666 4.46419 7.00651 4.46419 7.30232C4.46419 7.5982 4.70403 7.83811 4.99991 7.83811C5.29586 7.83811 5.53564 7.59826 5.53564 7.30232C5.53564 7.00644 5.29585 6.76666 4.99991 6.76666ZM5.39526 5.46992C5.39526 5.70721 5.20291 5.89956 4.96562 5.89956C4.72832 5.89956 4.53597 5.70721 4.53598 5.46992V2.15541C4.53598 1.91812 4.72832 1.72577 4.96562 1.72577C5.20291 1.72577 5.39526 1.91811 5.39526 2.15541V5.46992Z" fill="#0A1B39" fill-opacity="0.35"/>
</svg>
