<svg width="80" height="24" viewBox="0 0 80 24" fill="none" xmlns="http://www.w3.org/2000/svg">
<path fill-rule="evenodd" clip-rule="evenodd" d="M5.1151 3.03181C5.76647 2.37115 6.64992 2 7.5711 2H11.9104V5.22804H9.29661C8.88165 5.22804 8.48368 5.39523 8.19026 5.69284C7.89683 5.99045 7.73199 6.39409 7.73199 6.81497V7.14532H7.45314C7.33518 7.13934 5.83084 7.08251 4.76821 8.09948C4.15317 8.68639 3.81797 9.50828 3.76488 10.5458H1V7.4883H4.0978V5.52283C4.0978 4.58852 4.46373 3.69247 5.1151 3.03181ZM7.73041 7.48702H7.43551L7.43245 7.48692C7.35699 7.48432 5.94789 7.43564 4.99403 8.35111C4.43699 8.88485 4.13619 9.64724 4.09687 10.6164V18.2715H7.73041V11.512C7.73041 11.2555 7.83087 11.0095 8.00969 10.8282C8.18851 10.6468 8.43104 10.5449 8.68393 10.5449H11.9089V7.48735H7.73041V7.48702ZM20.9826 13.3074V13.3443C20.9826 16.1755 23.2487 18.5105 26.3845 18.5105C29.5397 18.5105 31.8239 16.1389 31.8239 13.3074V13.2705C31.8239 10.4392 29.5577 8.10421 26.4219 8.10421C23.2664 8.10421 20.9826 10.4761 20.9826 13.3074ZM28.4689 13.3074V13.3443C28.4689 14.5394 27.6723 15.5503 26.4206 15.5503C25.2059 15.5503 24.3359 14.5207 24.3359 13.3074V13.2705C24.3359 12.0757 25.1335 11.0644 26.3842 11.0644C27.5989 11.0644 28.4689 12.094 28.4689 13.3074ZM17.2484 8.32474H13.8042V18.2714H17.2484V15.1836C17.2484 12.8855 18.2635 11.8373 20.0578 11.8373H20.3481V8.15923C18.7167 8.08578 17.8103 8.96815 17.2484 10.3288V8.32474ZM33.1819 20.1101L34.2878 17.7933C35.339 18.3819 36.3905 18.7312 37.7136 18.7312C39.4358 18.7312 40.2878 17.8671 40.2878 16.2858V15.8996C39.5997 16.7086 38.6927 17.3889 37.2604 17.3889C34.8498 17.3889 32.91 15.6238 32.91 12.7743V12.7374C32.91 9.86928 34.8858 8.10421 37.1516 8.10421C38.6199 8.10421 39.4902 8.71107 40.2318 9.50171V8.32489H43.6759V15.8814C43.6759 17.7016 43.2771 18.9701 42.4072 19.8525C41.5188 20.7535 40.141 21.25 38.0927 21.25C36.1919 21.25 34.5958 20.8456 33.1819 20.1101ZM40.2878 12.7743V12.7374C40.2878 11.6344 39.4539 10.8254 38.2939 10.8254C37.1143 10.8254 36.2817 11.6526 36.2817 12.7557V12.7926C36.2817 13.8956 37.1156 14.7049 38.2939 14.7049C39.4539 14.7049 40.2878 13.8773 40.2878 12.7743ZM45.1273 13.3074V13.3443C45.1273 16.1755 47.3932 18.5105 50.529 18.5105C53.6844 18.5105 55.9683 16.1389 55.9683 13.3074V13.2705C55.9683 10.4392 53.7024 8.10421 50.5666 8.10421C47.4115 8.10421 45.1273 10.4761 45.1273 13.3074ZM52.6139 13.3074V13.3443C52.6139 14.5394 51.8164 15.5503 50.5657 15.5503C49.351 15.5503 48.481 14.5207 48.481 13.3074V13.2705C48.481 12.0757 49.2786 11.0644 50.5293 11.0644C51.7436 11.0644 52.6139 12.094 52.6139 13.3074ZM57.0185 13.3443V13.3074C57.0185 10.4761 59.3027 8.10421 62.4578 8.10421C65.594 8.10421 67.8598 10.4392 67.8598 13.2705V13.3074C67.8598 16.1389 65.576 18.5105 62.4205 18.5105C59.2844 18.5105 57.0185 16.1755 57.0185 13.3443ZM64.5051 13.3443V13.3074C64.5051 12.094 63.6348 11.0644 62.4205 11.0644C61.1698 11.0644 60.3722 12.0757 60.3722 13.2705V13.3074C60.3722 14.5207 61.2422 15.5503 62.4565 15.5503C63.7076 15.5503 64.5051 14.5394 64.5051 13.3443ZM68.9097 13.3074V13.3443C68.9097 16.1755 71.1756 18.5105 74.3117 18.5105C77.4672 18.5105 79.751 16.1389 79.751 13.3074V13.2705C79.751 10.4392 77.4852 8.10421 74.349 8.10421C71.1939 8.10421 68.9097 10.4761 68.9097 13.3074ZM76.3963 13.3074V13.3443H76.397C76.397 14.5394 75.5988 15.5503 74.3477 15.5503C73.1334 15.5503 72.2634 14.5207 72.2634 13.3074V13.2705C72.2634 12.0757 73.061 11.0644 74.3117 11.0644C75.526 11.0644 76.3963 12.094 76.3963 13.3074Z" fill="#3B4961"/>
</svg>
