<svg width="12" height="12" viewBox="0 0 12 12" fill="none" xmlns="http://www.w3.org/2000/svg">
<path fill-rule="evenodd" clip-rule="evenodd" d="M6 11C8.76142 11 11 8.76142 11 6C11 3.23858 8.76142 0.999999 6 1C3.23858 0.999999 1 3.23858 0.999999 6C1 8.76142 3.23858 11 6 11ZM6.04495 5.06693C5.79686 5.06693 5.59576 5.26803 5.59576 5.51612L5.59576 8.98147C5.59576 9.22957 5.79686 9.43066 6.04495 9.43066C6.29305 9.43066 6.49414 9.22956 6.49414 8.98147L6.49414 5.51612C6.49415 5.26803 6.29305 5.06693 6.04495 5.06693ZM6.00923 4.16113C6.3185 4.16113 6.56934 3.91037 6.56934 3.6011C6.56934 3.29176 6.31858 3.04092 6.00923 3.04092C5.69982 3.04092 5.44913 3.29169 5.44913 3.6011C5.44913 3.91044 5.69983 4.16113 6.00923 4.16113Z" fill="#4C8AEF"/>
</svg>
