<svg width="16" height="16" viewBox="0 0 16 16" fill="none" xmlns="http://www.w3.org/2000/svg">
<path d="M7.9885 10.4524C7.57614 10.4524 7.2417 10.7867 7.2417 11.1991C7.2417 11.6116 7.57605 11.946 7.9885 11.946C8.40106 11.946 8.73531 11.6117 8.73531 11.1991C8.73531 10.7866 8.40104 10.4524 7.9885 10.4524Z" fill="#0A1B39" fill-opacity="0.6"/>
<path d="M7.98853 1.01978C4.14522 1.01978 1.01855 4.14636 1.01855 7.98975C1.01855 11.8332 4.14522 14.9598 7.98853 14.9598C11.832 14.9598 14.9585 11.8332 14.9585 7.98975C14.9585 4.14636 11.8319 1.01978 7.98853 1.01978ZM7.98853 13.9596C4.69675 13.9596 2.01879 11.2812 2.01879 7.98977C2.01879 4.69789 4.69675 2.02003 7.98853 2.02003C11.2799 2.02003 13.9584 4.69791 13.9584 7.98977C13.9584 11.2812 11.2798 13.9596 7.98853 13.9596Z" fill="#0A1B39" fill-opacity="0.6"/>
<path d="M7.94023 9.2436C8.27101 9.2436 8.53915 8.97547 8.53915 8.64468V4.02421C8.53915 3.69342 8.27101 3.42529 7.94023 3.42529C7.60943 3.42529 7.34131 3.69343 7.34131 4.02421V8.64468C7.34129 8.97547 7.60943 9.2436 7.94023 9.2436Z" fill="#0A1B39" fill-opacity="0.6"/>
</svg>
