<svg width="32" height="32" viewBox="0 0 32 32" fill="none" xmlns="http://www.w3.org/2000/svg">
<path d="M10.6147 16.0804C10.2091 15.3436 10.0003 14.6536 10.0003 14.0104C10.0003 13.282 10.1959 12.6688 10.5763 12.1336C10.6955 11.9662 10.8292 11.8096 10.9759 11.6656L11.0323 11.6056L11.0419 11.5948L11.0311 11.6068L11.0467 11.59C11.1567 11.4697 11.29 11.373 11.4385 11.306C11.5871 11.2389 11.7478 11.2029 11.9107 11.2C12.1579 11.2 12.3247 11.2024 12.4723 11.2096H12.5275C12.8467 11.2096 13.0147 11.3152 13.1923 11.6752L13.2127 11.7196V11.7208L13.2367 11.7724L13.6291 12.694C13.9387 13.4224 14.0875 13.7668 14.1211 13.834C14.2399 14.0632 14.2483 14.2456 14.1451 14.4448L14.1031 14.5264L14.0563 14.6164C13.9976 14.7324 13.9238 14.8402 13.8367 14.9368L13.6927 15.106C13.5727 15.2476 13.5139 15.3136 13.4647 15.3664L13.1791 15.6664L13.4011 16.0156C13.8139 16.6636 14.3131 17.26 14.8723 17.7424C15.3343 18.142 15.8083 18.4624 16.3123 18.7228C16.4947 18.8164 16.8583 18.9796 17.1403 19.0996L17.4823 19.246L17.7307 18.9664C18.0691 18.5884 18.4147 18.1732 18.5431 17.9884C18.7471 17.6908 18.9187 17.65 19.3423 17.8C19.5343 17.8672 20.5231 18.3232 21.3295 18.7132C21.4207 18.7576 21.4207 18.7576 21.5635 18.8236C21.6511 18.8656 21.7027 18.892 21.7495 18.9196C21.8455 18.9772 21.8971 19.0252 21.9367 19.0876C22.0543 19.2772 22.0123 19.9036 21.7807 20.5324C21.5635 21.1204 20.5159 21.8308 19.7275 21.9436C19.0339 22.0444 18.4459 22.012 17.8519 21.8296C17.2075 21.6316 16.7503 21.4696 16.1935 21.2368C15.2095 20.8252 14.2543 20.2 13.3327 19.372C12.6005 18.7126 11.9382 17.9796 11.3563 17.1844C11.305 17.1168 11.2542 17.0488 11.2039 16.9804C10.9844 16.6962 10.7874 16.3953 10.6147 16.0804ZM6.93072 25.0672L10.6291 23.9572C12.6075 25.2926 15.0123 25.8431 17.3746 25.5014C19.7369 25.1596 21.8872 23.9501 23.4059 22.1088C24.9247 20.2674 25.7031 17.9263 25.5892 15.5422C25.4753 13.158 24.4773 10.9018 22.7899 9.21364C21.1025 7.52547 18.8468 6.52644 16.4627 6.41144C14.0785 6.29644 11.7371 7.07371 9.89506 8.59162C8.05302 10.1095 6.84251 12.2592 6.49967 14.6214C6.15682 16.9835 6.70623 19.3886 8.04072 21.3676L6.93072 25.0672ZM5.43672 21.6976C4.49107 19.9476 3.99734 17.9892 4.00032 16C4.00032 9.3724 9.37272 4 16.0003 4C22.6279 4 28.0003 9.3724 28.0003 16C28.0003 22.6276 22.6279 28 16.0003 28C14.0102 28.003 12.0509 27.5088 10.3003 26.5624L5.69952 27.9424C5.47116 28.011 5.22848 28.0165 4.99726 27.9582C4.76604 27.9 4.55492 27.7802 4.38631 27.6116C4.21771 27.443 4.09792 27.2319 4.03968 27.0006C3.98144 26.7694 3.98691 26.5267 4.05552 26.2984L5.43552 21.6976H5.43672Z" fill="#0A1B39"/>
</svg>
